// "EE E CE G  g  C  g e  a b ia gEGA FG E CDb C  g e  a b ia gEGA FG E CDb  GNFR E uaC aCD GNFR E 1 11   GNFR E uaC aCD L  D C   CC C CD EC ag  CC C CDE  CC C CD EC ag  EE E CE G  g  C  g e  a b ia gEGA FG E CDb C  g e  a b ia gEGA FG E CDb EC g u aF Fa  bAAAGFEC ag  EC g u aF Fa  bF FFEDCe ec  "
int music[] = {NOTE_E5,NOTE_E5,0,NOTE_E5,0,NOTE_C5,NOTE_E5,0,NOTE_G5,0,0,NOTE_G4,0,0,NOTE_C5,0,0,
NOTE_G4,0,NOTE_E4,0,0,NOTE_A4,0,NOTE_B4,0,NOTE_AS4,NOTE_A4,0,NOTE_G4,NOTE_E5,NOTE_G5,NOTE_A5,0,
NOTE_F5,NOTE_G5,0,NOTE_E5,0,NOTE_C5,NOTE_D5,NOTE_B4,0,NOTE_C5,0,0,NOTE_G4,0,NOTE_E4,0,0,NOTE_A4,0,
NOTE_B4,0,NOTE_AS4,NOTE_A4,0,NOTE_G4,NOTE_E5,NOTE_G5,NOTE_A5,0,NOTE_F5,NOTE_G5,0,NOTE_E5,0,NOTE_C5,
NOTE_D5,NOTE_B4,0,0,NOTE_G5,NOTE_G5,NOTE_F5,NOTE_DS5,0,NOTE_E5,0,NOTE_GS4,NOTE_A4,NOTE_C5,0,NOTE_A4,
NOTE_C5,NOTE_D5,0,NOTE_G5,NOTE_G5,NOTE_F5,NOTE_DS5,0,NOTE_E5,0,NOTE_C6,0,NOTE_C6,NOTE_C6,0,0,0,
NOTE_G5,NOTE_G5,NOTE_F5,NOTE_DS5,0,NOTE_E5,0,NOTE_GS4,NOTE_A4,NOTE_C5,0,NOTE_A4,NOTE_C5,NOTE_D5,0,
NOTE_DS5,0,0,NOTE_D5,0,NOTE_C5,0,0,0,NOTE_C5,NOTE_C5,0,NOTE_C5,0,NOTE_C5,NOTE_D5,0,NOTE_E5,NOTE_C5,0,
NOTE_A4,NOTE_G4,0,0,NOTE_C5,NOTE_C5,0,NOTE_C5,0,NOTE_C5,NOTE_D5,NOTE_E5,0,0,NOTE_C5,NOTE_C5,0,NOTE_C5,0,
NOTE_C5,NOTE_D5,0,NOTE_E5,NOTE_C5,0,NOTE_A4,NOTE_G4,0,0,NOTE_E5,NOTE_E5,0,NOTE_E5,0,NOTE_C5,NOTE_E5,0,
NOTE_G5,0,0,NOTE_G4,0,0,NOTE_C5,0,0,NOTE_G4,0,NOTE_E4,0,0,NOTE_A4,0,NOTE_B4,0,NOTE_AS4,NOTE_A4,0,NOTE_G4,
NOTE_E5,NOTE_G5,NOTE_A5,0,NOTE_F5,NOTE_G5,0,NOTE_E5,0,NOTE_C5,NOTE_D5,NOTE_B4,0,NOTE_C5,0,0,NOTE_G4,0,
NOTE_E4,0,0,NOTE_A4,0,NOTE_B4,0,NOTE_AS4,NOTE_A4,0,NOTE_G4,NOTE_E5,NOTE_G5,NOTE_A5,0,NOTE_F5,NOTE_G5,0,
NOTE_E5,0,NOTE_C5,NOTE_D5,NOTE_B4,0,NOTE_E5,NOTE_C5,0,NOTE_G4,0,NOTE_GS4,0,NOTE_A4,NOTE_F5,0,NOTE_F5,
NOTE_A4,0,0,NOTE_B4,NOTE_A5,NOTE_A5,NOTE_A5,NOTE_G5,NOTE_F5,NOTE_E5,NOTE_C5,0,NOTE_A4,NOTE_G4,0,0,NOTE_E5,
NOTE_C5,0,NOTE_G4,0,NOTE_GS4,0,NOTE_A4,NOTE_F5,0,NOTE_F5,NOTE_A4,0,0,NOTE_B4,NOTE_F5,0,NOTE_F5,NOTE_F5,
NOTE_E5,NOTE_D5,NOTE_C5,NOTE_E4,0,NOTE_E4,NOTE_C4,0,0};

char noteDurations[] = { // for original duration divide the values by 3
3, 3, 3, 3, 3, 3, 3, 3, 3, 3, 6, 3, 3, 6, 3, 3, 3, 3, 6, 3, 3, 3, 3, 3, 3, 3, 3, 3, 3, 3, 3, 3, 3, 3, 3, 3, 3, 3, 3, 3, 3, 3, 6, 3, 3, 3, 3, 6, 3, 3, 3, 3, 3, 3, 3, 3, 3, 3, 3, 3, 3, 3, 3, 3, 3, 3, 3, 3, 3, 3, 3, 6, //Page 1
6, 3, 3, 3, 3, 3, 3, 3, 3, 3, 3, 3, 3, 3, 3, 6, 3, 3, 3, 3, 3, 3, 3, 3, 3, 3, 3, 3, 6, 6, 3, 3, 3, 3, 3, 3, 3, 3, 3, 3, 3, 3, 3, 3, 6, 3, 3, 3, 3, 6, 3, 3, 6, 12, //Page 6
3, 3, 3, 3, 3, 3, 3, 3, 3, 3, 3, 3, 3, 3, 6, 3, 3, 3, 3, 3, 3, 3, 3, 12, 12, 3, 3, 3, 3, 3, 3, 3, 3, 3, 3, 3, 3, 3, 3, 6, 3, 3, 3, 3, 3, 3, 3, 3, 3, 3, 6, 3, 3, 6, //Page16
3, 3, 3, 3, 6, 3, 3, 3, 3, 3, 3, 3, 3, 3, 3, 3, 3, 3, 3, 3, 3, 3, 3, 3, 3, 3, 3, 3, 6, 3, 3, 3, 3, 6, 3, 3, 3, 3, 3, 3, 3, 3, 3, 3, 3, 3, 3, 3, 3, 3, 3, 3, 3, 3, 3, 3, 3, 6, //Page 5
3, 3, 3, 3, 6, 3, 3, 3, 3, 3, 3, 3, 3, 6, 4, 4, 4, 4, 4, 4, 3, 3, 3, 3, 3, 3, 6, 3, 3, 3, 3, 6, 3, 3, 3, 3, 3, 3, 3, 3, 6, 3, 3, 3, 3, 4, 4, 4, 3, 3, 3, 3, 3, 3, 6 }; //Page 6

int musicLength = sizeof(music)/sizeof(int);
int noteDurationsLength = sizeof(noteDurations)/sizeof(char);


